<?xml version="1.0" encoding="UTF-8"?>
<svg xmlns="http://www.w3.org/2000/svg" width="200" height="300" viewBox="0 0 200 300">
<rect width="200" height="300" fill="none"/>
<circle cx="100" cy="70" r="38" fill="#2b2b2b"/>
<path d="M55 120 L145 120 L160 210 L40 210 Z" fill="#1f4b3a"/>
<rect x="45" y="200" width="110" height="60" rx="12" fill="#222"/>
<rect x="30" y="250" width="60" height="24" rx="12" fill="#444"/>
<rect x="110" y="250" width="60" height="24" rx="12" fill="#444"/>
<rect x="68" y="95" width="64" height="18" rx="8" fill="#3a3a3a"/>
<rect x="20" y="160" width="40" height="18" rx="8" fill="#333"/>
<rect x="140" y="160" width="40" height="18" rx="8" fill="#333"/>
<circle cx="100" cy="62" r="5" fill="#f5f5f5"/>
<circle cx="115" cy="62" r="5" fill="#f5f5f5"/>
<circle cx="100" cy="62" r="2" fill="#111"/>
<circle cx="115" cy="62" r="2" fill="#111"/>
<path d="M88 78 Q108 88 128 78" stroke="#f5f5f5" stroke-width="4" fill="none"/>
</svg>
